<svg id="Layer_1" data-name="Layer 1" xmlns="http://www.w3.org/2000/svg" viewBox="0 0 394.76 221.14"><defs><style>.cls-1{fill:#0fc2c0;}.cls-2{fill:#efdfdf;}</style></defs><path class="cls-1" d="M586.67,361.19a.49.49,0,0,0-.78.25c-.34.89-.64,1.79-.92,2.7-.65,2.14-1.18,4.32-2,6.41a21.79,21.79,0,0,1-12.58,13.09,37,37,0,0,1-16.89,2.79,45.23,45.23,0,0,1-24.69-9.52c-.6-.46-1.4-.86-1.05-2,.63-.34,1.32-.73,2-1.08a74.05,74.05,0,0,0,22.76-16.53,32.64,32.64,0,0,1,2.5-2.19,24.8,24.8,0,0,0,4.52-4.92c.17-.22.34-.42.51-.63l.08-.1c10.44-13.19,16.29-28.35,19.28-44.75,0-.13,0-.26.07-.39,0-.4.11-.79.18-1.19a5.08,5.08,0,0,0-.45-4,119.06,119.06,0,0,0-.38-35.21c-1.12-6.9-2.63-13.74-5.55-20.16-.64-.57-.45-1.46-.84-2.12a1,1,0,0,0,0-.72c.45-1.89-1-2.91-1.89-4.22A102.18,102.18,0,0,0,560.29,219c-6.48-8.87-14-16.61-23.38-22.49-13.13-8.28-27.35-11.34-42.68-8.32a65.12,65.12,0,0,0-26.44,11.95A93.18,93.18,0,0,0,436,242c-9.21,23.72-10.13,48-4.06,72.55,3.62,14.64,10,28,19.94,39.44,12.66,14.44,27.89,24.34,47.69,25.52a3.16,3.16,0,0,1,2.68,1.66c1,1.62,2.05,3.25,3.14,4.83a79.31,79.31,0,0,0,10,12.24,33.94,33.94,0,0,0,13.46,8c6.53,2.12,13.24,2.31,19.94,1.61,13.57-1.42,24.1-7.89,31.37-19.55A45.79,45.79,0,0,0,586.79,369c.28-2.37.37-4.76.48-7.15C587.28,361.61,586.91,361.35,586.67,361.19Zm-33.3-102.5a177.49,177.49,0,0,1,1.54,40.15A125.57,125.57,0,0,1,544.61,342c-1.3.13-2-.82-2.8-1.58a56.54,56.54,0,0,1-14.57-22.18,66.79,66.79,0,0,1,9.3-60.9,41.15,41.15,0,0,1,12-10.86,2.87,2.87,0,0,1,2.68-.48C551.92,250.2,552.68,254.44,553.37,258.69ZM496.55,375.24a33.33,33.33,0,0,1-13.73-6.47,53.84,53.84,0,0,1-10.69-12.19c-.67-1-.31-1.88.85-2.1a11.86,11.86,0,0,1,6.59.44,18.08,18.08,0,0,1,6.06,3.75c5.07,4.71,8.82,10.43,12.69,16.38A6.69,6.69,0,0,1,496.55,375.24Zm24.51-5.63c-3-2.68-5.89-5.41-8.88-8.06-1.79-1.59-3.63-3.14-5.54-4.59-9.66-7.32-20.45-9.38-32.2-6.78-1.09.24-2.16.56-3.24.85-2.2.57-2.4.54-3.44-1.38a117,117,0,0,1-9.56-23.49,129,129,0,0,1-4.7-29.78,198.61,198.61,0,0,1,.6-28.75A167,167,0,0,1,461,233.38a96.74,96.74,0,0,1,9.83-21.8,57.71,57.71,0,0,1,7.27-9.51c8.65-9.06,19.36-11.93,31.48-10.54,9.76,1.12,17.38,6,23.47,13.53a79.52,79.52,0,0,1,12.37,22.09C546.87,231,548,235,549.32,239c-3.67,1.55-7.43,2.91-11,4.69-23.67,11.79-35.54,30.9-34.85,57.41A51.24,51.24,0,0,0,517.22,335a65.55,65.55,0,0,0,18.59,14.18c1,.52,2,.95,3,1.46.65.33.69,1,.83,1.63l-2.92,4.35a53.39,53.39,0,0,1-12.45,13.21C522.75,371,522.59,371,521.06,369.61Z" transform="translate(-428.08 -187.05)"/><path class="cls-2" d="M632.91,300.71a1.87,1.87,0,0,1-1.75,1.92c-1.1.22-2.21.36-3.3.6a35.79,35.79,0,0,0-3.7.94c-5.65,1.93-7.38,4.18-7.55,10.2s-.12,11.82-.25,17.73c-.05,2.07-.38,4.13-.52,6.2a4,4,0,0,1-2,3.11c-.4.26-.79.54-1.21.77-9.82,5.4-19.84,10.33-30.92,12.64a73.66,73.66,0,0,1-24.78.82,13.7,13.7,0,0,1-1.85-.5c.42-2.49,2.54-3.81,3.87-5.68.42,0,.83,0,1.24,0,5.72.25,11.32,1.95,17.22.67a32.7,32.7,0,0,0,19-11.92c2.31-2.85,2.22-6.58,2.45-10,.31-4.63-.55-9.23-1.44-13.73-1.37-6.86-5-9.51-12.1-9.83-2-.09-3.91.37-5.86.1a6.24,6.24,0,0,1-1.25-.28l1-5.25c3.35.1,6.71.33,10.06.29,12.3-.15,24.6-.38,36.9-.58,1.6,0,3.2-.06,4.79,0A1.78,1.78,0,0,1,632.91,300.71Z" transform="translate(-428.08 -187.05)"/><path class="cls-1" d="M716.66,266.93c5.05,5.49,5.05,5.49,7.53,13.46.14.45.34.9.45,1.36a4.86,4.86,0,0,0,4.59,4.18,5.33,5.33,0,0,1,1.32.42c.1,0,.23.27.2.34-.13.27-.27.63-.5.73a3.32,3.32,0,0,1-1.39.24,55.3,55.3,0,0,0-9.1-.05,2.49,2.49,0,0,1-2.59-1.72,30.1,30.1,0,0,1-1.78-6.45c-.6-2.57-1.67-4.8-4.18-6.1-1.85-1-3.64-.12-3.72,2s.13,4.47.16,6.71c0,1.85.8,3,2.74,3.3a2.88,2.88,0,0,1,1.23.65.91.91,0,0,1,.23.79,1.11,1.11,0,0,1-.63.66,5.62,5.62,0,0,1-1.87.19,72.38,72.38,0,0,0-11.5,0,8,8,0,0,1-2.31-.32,1,1,0,0,1-.6-.68.91.91,0,0,1,.43-.77c3.7-.77,3.89-3.45,3.85-6.52-.14-10.07-.12-20.15-.17-30.23,0-1,0-1.92-.12-2.87A3.65,3.65,0,0,0,696.5,243c-.58-.23-1.15-.49-1.7-.76a.44.44,0,0,1-.18-.39,2.55,2.55,0,0,1,.34-.75.65.65,0,0,1,.44-.18c3.81-.19,7.53-1.35,11.38-1.05,1.33,3.54.48,7.21.58,10.82.16,6.23.06,12.48.09,18.71,0,1,.78,1.42,1.53.86a34.67,34.67,0,0,0,7.49-7.37c1.32-1.84,1-2.8-1.17-3.56-.6-.21-1.26-.24-1.85-.46a.91.91,0,0,1-.44-.72c0-.23.3-.64.48-.64,1.59,0,3.19,0,4.78,0,2.72,0,5.44-.07,8.16-.07.41,0,1-.12,1.13.54a.81.81,0,0,1-.62,1.05C721.71,260.91,720.67,261.71,716.66,266.93Z" transform="translate(-428.08 -187.05)"/><path class="cls-2" d="M741.61,347.46c-2.62-.83-3.25-2.78-3.09-5.25.08-1.11,0-2.23,0-3.35q.06-16.51.13-33c0-1.27,0-2.55-.13-3.82a1.22,1.22,0,0,0-1.26-1.17c-2.55,0-5.1-.07-7.65,0a1.55,1.55,0,0,0-1.12.69c-.27.49.19.81.65,1a3.19,3.19,0,0,1,2.44,3.15c0,3.67.12,7.34.11,11,0,1.05.36,2.19-.25,3-.64.42-1,0-1.44-.16-4.62-2.18-8.12-1.65-11.72,1.81a15.43,15.43,0,0,0-3.95,5.92,21.77,21.77,0,0,0-.4,13.63,13.52,13.52,0,0,0,5.57,7.53c2.37,1.63,7.58,2.05,9.72-.68a6.85,6.85,0,0,1,1.36-1.33c.79-.55,1.08-.05,1.12.7s.34,1.58,1.35,1.6c2.39.05,4.78.06,7.17.05.59,0,1.25.07,1.67-.54C741.81,348,741.77,347.51,741.61,347.46Zm-10.8-6.07a7.6,7.6,0,0,1-2.32,4.09,3.1,3.1,0,0,1-4.32,0,7.9,7.9,0,0,1-2.15-3.65c-.93-2.78-.86-5.64-.91-8.51a29.93,29.93,0,0,1,.81-8.05,9.61,9.61,0,0,1,1.59-3.43,3.71,3.71,0,0,1,5.8,0,8.08,8.08,0,0,1,1.58,3.44A37.05,37.05,0,0,1,730.81,341.39Z" transform="translate(-428.08 -187.05)"/><path class="cls-1" d="M648.16,268.78q0-3.11,0-6.23c0-1.83-.68-3.06-2.69-3.27a4,4,0,0,1-1.28-.51c-.12-.06-.28-.27-.25-.37.07-.28.21-.76.35-.77a41.66,41.66,0,0,1,5.23-.28c2,.08,4.48-1,5.91.61,1.21,1.37.41,3.68.43,5.57.08,5.75.14,11.5,0,17.25,0,2.4.16,4.43,3,5.07.21,0,.51.6.44.71-.23.38-.61.95-.93.95-2.55,0-5.09-.1-7.64-.18-2.23-.06-2.26-.06-2.75-2.66-.16-.89-.61-1.05-1.24-.63-.93.62-1.74,1.41-2.65,2a11.41,11.41,0,0,1-7.72,2c-3.94-.29-6.58-2.48-7.32-6.35a27,27,0,0,1-.32-4.77c-.07-4.47,0-8.94-.14-13.41,0-2.13-.25-4.24-3-4.71-.14,0-.24-.5-.28-.78s.17-.6.57-.6c.16,0,.32-.09.47-.09,12.44.3,9.82-2.68,10.24,9.6.12,3.67,0,7.35.08,11a9.35,9.35,0,0,0,.75,4.2,3.81,3.81,0,0,0,5.15,2.11,7.83,7.83,0,0,0,4.87-5.5,26.39,26.39,0,0,0,.68-7.13v-2.88Z" transform="translate(-428.08 -187.05)"/><path class="cls-2" d="M792.87,318.91c2.56-.32,5.2-.66,7.85-1a1.28,1.28,0,0,1,1.48.91c.4,1.37.67,2.78,1,4.19.94.38,1.36-.36,1.88-.94a11.05,11.05,0,0,1,5.46-3.7,7.14,7.14,0,0,1,8.76,4.7,13.71,13.71,0,0,1,.64,4.72c-.06,3.52-.1,7-.15,10.55l-.06,3.83c0,2.16.13,4.19,2.63,5.07a.75.75,0,0,1,.3,1.19,1.51,1.51,0,0,1-.71.55,4,4,0,0,1-1.42.14,42.61,42.61,0,0,0-8.6,0,3.91,3.91,0,0,1-1.85-.31c-.38-.15-.82-.83-.29-1.09,2.89-1.39,2.76-4,2.79-6.54.06-4.48.11-8.95.09-13.42a13.69,13.69,0,0,0-.52-3.78,2.82,2.82,0,0,0-4.59-1.47,8.64,8.64,0,0,0-2.62,3.37,19.24,19.24,0,0,0-2,7.36c-.2,3.19-.15,6.39-.2,9.58,0,2.09.65,3.73,2.76,4.56.36.14.81.59.31,1.11-.21.22-.49.54-.74.54-4,0-8,0-12,0-.33,0-.72-.56-.93-.94a.88.88,0,0,1,.34-.79c2.73-.82,2.89-3.14,3.08-5.35a134.06,134.06,0,0,0,.2-16.77c-.07-2-.6-3.78-2.5-4.87A1.09,1.09,0,0,1,792.87,318.91Z" transform="translate(-428.08 -187.05)"/><path class="cls-1" d="M692,285.18a2.26,2.26,0,0,0-.94-.12c-1.81.13-2.66-.86-2.83-2.51-.21-2.06-.41-4.13-.44-6.19-.07-4-.05-8,0-12,0-3.72-1.91-5.95-5.29-7.08a20.68,20.68,0,0,0-11.33-.31,13.8,13.8,0,0,0-4.43,1.74,4.91,4.91,0,0,0-2.45,4.38,3.23,3.23,0,0,0,3.69,3.4,3.8,3.8,0,0,0,3.37-2.31c.41-1,.62-2.14,1-3.18a3.5,3.5,0,0,1,5.48-1.62,4.58,4.58,0,0,1,1.78,2.75,6.26,6.26,0,0,1-3.65,7.48c-2.31,1.08-4.73,1.93-7.09,2.88a9.34,9.34,0,0,0-4.48,3.45,7.89,7.89,0,0,0-.51,8.6c1.54,2.9,4.16,3.71,7.28,3.52a10.35,10.35,0,0,0,4.1-1.19c1.12-.57,2.17-1.3,3.23-1.94,1.24.81,1.39,2.72,3.06,2.93a19.69,19.69,0,0,0,10.72-1.36,1,1,0,0,0,.38-.82C692.66,285.51,692.3,285.28,692,285.18Zm-12.68-5.79a6.08,6.08,0,0,1-3.49,4.27,3.35,3.35,0,0,1-4.44-1.62,6.47,6.47,0,0,1,2-8.06,33.7,33.7,0,0,1,5.77-3.25C680,275.08,680,277.17,679.36,279.39Z" transform="translate(-428.08 -187.05)"/><path class="cls-2" d="M572.53,241c-1.42-1.05-1.32-2.79-1.89-4.22,9.73.58,18.82,3.46,27.6,7.51,2,.94,4.09,1.8,6.15,2.67a5.1,5.1,0,0,0,6.46-1.52c.8-.95,1.5-2.35,3-1.94,1.66.47,1.79,2.09,1.94,3.53.57,5.4,1.11,10.81,1.69,16.22.31,2.86.68,5.71,1,8.57a19.29,19.29,0,0,1,.15,2.39c0,.82-.17,1.62-1.09,1.93a1.67,1.67,0,0,1-2-.8c-.75-1.22-1.39-2.51-2-3.79a63.51,63.51,0,0,0-12.82-17.83,47.94,47.94,0,0,0-22.41-12.35A12.45,12.45,0,0,0,572.53,241Z" transform="translate(-428.08 -187.05)"/><path class="cls-2" d="M645.59,345.71c-.66,0-1,.58-1.47,1a22,22,0,0,1-2.66,2c-5.08,2.83-10.25.48-11.35-5.16a23.73,23.73,0,0,1-.28-4.3c-.05-4.64,0-9.27-.07-13.91,0-2.12-.06-4.21-2.59-5.07-.16-.05-.28-.57-.21-.8a.89.89,0,0,1,.63-.55c2.55-.05,5.1-.08,7.65,0a1.19,1.19,0,0,1,1.16,1.27c.07,1.27.12,2.55.13,3.83q.06,8.15.11,16.3a8,8,0,0,0,1.1,4.59,2.93,2.93,0,0,0,4.15,1,6.89,6.89,0,0,0,3.33-3.93,14.61,14.61,0,0,0,.9-4.2c.15-4.63.11-9.27.15-13.9,0-1.62-.57-2.77-2.32-3.1-.6-.11-1.28-.34-1.1-1.2s1-.67,1.55-.69c2.24-.08,4.48-.09,6.71-.1a1.55,1.55,0,0,1,1.74,1.76c0,2.08,0,4.16.06,6.24,0,5.75.08,11.51.06,17.26,0,1.44.4,2.45,1.86,2.94.6.2,1.13.7.76,1.45s-1,.68-1.65.64c-1.75-.09-3.5-.18-5.26-.25-2-.08-2-.08-2.52-2.42C646.09,346,646,345.72,645.59,345.71Z" transform="translate(-428.08 -187.05)"/><path class="cls-1" d="M750.82,257.14a16.16,16.16,0,0,0-20.08,13.95c-1.16,10.68,6.6,17.51,14.84,17.05a28.68,28.68,0,0,0,3.34-.23c4.05-.72,7.62-2.31,10-5.92a.9.9,0,0,0-.08-1.27,1,1,0,0,0-1.29,0,35.62,35.62,0,0,1-3.91,2.73c-5.13,2.73-9.87,1.08-12.3-4.14a14.36,14.36,0,0,1-1.21-6c0-1.26.39-1.74,1.66-1.78,3.19-.11,6.38-.14,9.57-.23q3.58-.11,7.17-.28c1-.05,1.36-.7,1.44-1.59C760.29,265.4,756.23,258.53,750.82,257.14Zm-3.18,11.59c-2.36-.09-4.75.34-7.11-.35a10.51,10.51,0,0,1,1.64-7,4.63,4.63,0,0,1,8-.36,8.29,8.29,0,0,1,1.13,2.09C752.85,267.37,751.12,268.87,747.64,268.73Z" transform="translate(-428.08 -187.05)"/><path class="cls-2" d="M685.47,347.46a1,1,0,0,0-1-.74c-1.82,0-2.54-1.06-2.64-2.72-.07-1.27-.15-2.55-.16-3.82,0-4,0-8,0-12,0-1.43-.17-2.86-.32-4.29a6,6,0,0,0-3.83-5.11,14.59,14.59,0,0,0-13.35.81,5.13,5.13,0,0,0-2.57,5.29,2.66,2.66,0,0,0,1.85,2.54,3.12,3.12,0,0,0,3.47-.93,9.09,9.09,0,0,0,1-2.14c.31-.91.41-1.89.77-2.77a2.71,2.71,0,0,1,4.69-.63,4.76,4.76,0,0,1,.76,1.2,7.12,7.12,0,0,1-3.37,9.32c-1.7.88-3.5,1.57-5.18,2.48-4,2.21-5.62,5.38-5,10,.71,5,4.46,6.92,9.13,5.24a25.69,25.69,0,0,0,4.05-2.43c.88,1.27,1.28,2.81,3.06,2.93a16.7,16.7,0,0,0,8-1.11C685.17,348.36,685.64,348.09,685.47,347.46Zm-11.21-6.54a6,6,0,0,1-2.36,4,2.71,2.71,0,0,1-4.1-.81,7.46,7.46,0,0,1,1.63-8.72c1.32-1.09,2.8-2,4.76-3.37A27.61,27.61,0,0,1,674.26,340.92Z" transform="translate(-428.08 -187.05)"/><path class="cls-2" d="M788,346.65a1.76,1.76,0,0,1-1.68-1.42,21.75,21.75,0,0,1-.55-3.75c-.09-3,0-6.06-.06-9.09,0-2.55,0-5.1-.09-7.65a6.18,6.18,0,0,0-4-6,14.54,14.54,0,0,0-13.32.88,5.32,5.32,0,0,0-2.63,5.27,3.06,3.06,0,0,0,5.66,1.25,14.38,14.38,0,0,0,.87-2.2,27,27,0,0,1,.87-2.72,2.54,2.54,0,0,1,3.69-.92,4.24,4.24,0,0,1,1.88,2.66c1.06,3.83-.31,6.79-4,8.66-1.85.93-3.82,1.65-5.59,2.7a9,9,0,0,0-4.3,9.84c1.28,5.83,5.49,6.38,9.37,4.87a31.34,31.34,0,0,0,4.16-2.5c.6,2.39,1.88,3.28,3.92,3.19a21.22,21.22,0,0,0,5.67-.74c.72-.23,1.73-.34,1.84-1.25C789.77,346.58,788.67,346.74,788,346.65Zm-9.28-6.88a7,7,0,0,1-2,4.71c-1.78,1.77-4,1.36-4.95-.93a7,7,0,0,1,1.9-8.21,15.43,15.43,0,0,1,1.54-1.11c.91-.61,1.84-1.19,3.56-2.3C778.7,335.08,778.8,337.43,778.67,339.77Z" transform="translate(-428.08 -187.05)"/><path class="cls-2" d="M698.38,323.55c1.35-1.67,2-2.55,2.74-3.38a7,7,0,0,1,3.18-2.06,4.92,4.92,0,0,1,5.57,1.69,5.9,5.9,0,0,1,.16,6.32,2.81,2.81,0,0,1-4.53.27c-.31-.36-.52-.8-.8-1.18-.63-.89-.92-2.43-2.13-2.38-1.63.08-2.09,1.72-2.67,3a10.36,10.36,0,0,0-.86,4.2c0,4.48,0,8.95,0,13.43,0,1.76.46,3.15,2.55,3.37a2.55,2.55,0,0,1,1.21.66c.48.41.18.93-.17,1.19a2.22,2.22,0,0,1-1.32.43,67.82,67.82,0,0,0-11.49,0,2.2,2.2,0,0,1-1.32-.42c-.35-.23-.74-.65-.24-1.14.11-.11.21-.3.34-.33,2.85-.53,3.19-2.54,3.13-5-.12-5.43-.12-10.86-.12-16.3,0-2.55-.22-4.88-3.4-5.43-.18,0-.37-.5-.41-.79a.86.86,0,0,1,.8-1c1.42-.16,2.86-.2,4.29-.33,1.12-.1,2.22-.31,3.33-.41,1.42-.11,1.86.21,2,1.42S698.28,321.59,698.38,323.55Z" transform="translate(-428.08 -187.05)"/><path class="cls-2" d="M756.65,331.59c0,3.35.08,6.71,0,10.07-.08,2.59.2,4.81,3.24,5.53a.87.87,0,0,1,.6,1.11,1,1,0,0,1-1.06.78c-1.27,0-2.55-.06-3.83-.07-3,0-6.06,0-9.08,0a.94.94,0,0,1-1-.89c0-.22.32-.52.56-.64a15.41,15.41,0,0,1,1.79-.69,2.17,2.17,0,0,0,1.45-1.75,16,16,0,0,0,.36-2.84c.13-5.92,0-11.83-.39-17.73-.13-2-.69-3.41-2.82-3.8a1.05,1.05,0,0,1-.92-.93c-.09-.88.67-1,1.26-1.05,2.22-.3,4.43-.61,6.66-.8,2.89-.25,3.1-.06,3.14,2.67,0,3.67,0,7.35,0,11Z" transform="translate(-428.08 -187.05)"/><path class="cls-2" d="M756.09,306.43a11.36,11.36,0,0,1-.65,2.15,3.91,3.91,0,0,1-7.2-.08,5.86,5.86,0,0,1-.39-4.2,4.05,4.05,0,0,1,8,.08C756,305,756,305.64,756.09,306.43Z" transform="translate(-428.08 -187.05)"/><path class="cls-2" d="M573.36,243.83a1.72,1.72,0,0,1-.83-2.11A2,2,0,0,1,573.36,243.83Z" transform="translate(-428.08 -187.05)"/><path class="cls-2" d="M549.32,239c-1.54,2.9-4.65,3.2-7.24,4.25-23.47,9.54-38,30.91-37.51,56.15.39,20.17,10.07,35.23,26.92,45.9,2.15,1.36,4.37,2.65,6.63,3.85,1.21.64,2.84,1.24,1.54,3.17-.14-.62-.18-1.3-.83-1.63-1-.51-2-.94-3-1.46A65.55,65.55,0,0,1,517.22,335a51.24,51.24,0,0,1-13.74-33.95c-.69-26.51,11.18-45.62,34.85-57.41C541.89,241.88,545.65,240.52,549.32,239Z" transform="translate(-428.08 -187.05)"/><path class="cls-2" d="M551.19,246a2.87,2.87,0,0,0-2.68.48,41.15,41.15,0,0,0-12,10.86,66.79,66.79,0,0,0-9.3,60.9,56.54,56.54,0,0,0,14.57,22.18c.79.76,1.5,1.71,2.8,1.58-3,1.05-4.44-1.31-6-3a58.87,58.87,0,0,1-14.91-28.55c-3.77-18.76-.18-36.17,10.6-52a51.62,51.62,0,0,1,11-11.31C546.92,245.81,548.77,243.92,551.19,246Z" transform="translate(-428.08 -187.05)"/><path class="cls-2" d="M551.19,246a2.87,2.87,0,0,0-2.68.48,41.15,41.15,0,0,0-12,10.86,66.79,66.79,0,0,0-9.3,60.9,56.54,56.54,0,0,0,14.57,22.18c.79.76,1.5,1.71,2.8,1.58-1.3,3-2.62,5.92-3.88,8.91a2.59,2.59,0,0,1-1.07,1.43c-.14-.62-.18-1.3-.83-1.63-1-.51-2-.94-3-1.46A65.55,65.55,0,0,1,517.22,335a51.24,51.24,0,0,1-13.74-33.95c-.69-26.51,11.18-45.62,34.85-57.41,3.56-1.78,7.32-3.14,11-4.69C549.94,241.3,550.57,243.62,551.19,246Z" transform="translate(-428.08 -187.05)"/><path class="cls-2" d="M598.32,312.3c-1.26-5-4.72-7.79-9.65-8.83a36.2,36.2,0,0,0-8.58-.36,1.34,1.34,0,0,0-.35.05c-.68.17-1.07.77-1.5,1.3a13.25,13.25,0,0,1-.14,1.89c-3.3,15.73-9.37,30.24-19.13,43.11a2.74,2.74,0,0,0,.65.76c1,.83,2.37.79,3.57,1a44.34,44.34,0,0,0,13.8.35,28.37,28.37,0,0,0,9-2.9,40.63,40.63,0,0,0,11.43-9.31,7,7,0,0,0,1.91-3.78A61.33,61.33,0,0,0,598.32,312.3Zm.57,15.9c-.23,3.46-.14,7.19-2.45,10a32.7,32.7,0,0,1-19,11.92c-5.9,1.28-11.5-.42-17.22-.67,10.44-13.19,16.29-28.35,19.28-44.75,2,.27,3.91-.19,5.86-.1,7.11.32,10.73,3,12.1,9.83C598.34,319,599.2,323.57,598.89,328.2Z" transform="translate(-428.08 -187.05)"/></svg>